<svg width="40" height="40" viewBox="0 0 40 40" fill="none" xmlns="http://www.w3.org/2000/svg">
<path d="M21.1765 38.8C20.3755 39.6 19.4243 40 18.3229 40C17.2215 40 16.2703 39.6 15.4693 38.8L1.15144 24.5C0.383813 23.7333 0 22.7917 0 21.675C0 20.5583 0.383813 19.6167 1.15144 18.85L18.7735 1.2C19.1406 0.833333 19.5745 0.541667 20.0751 0.325C20.5757 0.108333 21.1097 0 21.6771 0H35.995C37.0964 0 38.0392 0.391667 38.8235 1.175C39.6078 1.95833 40 2.9 40 4V18.3C40 18.8667 39.8915 19.4 39.6746 19.9C39.4577 20.4 39.1656 20.8333 38.7985 21.2L21.1765 38.8ZM30.9887 12C31.8231 12 32.5323 11.7083 33.1164 11.125C33.7005 10.5417 33.9925 9.83333 33.9925 9C33.9925 8.16667 33.7005 7.45833 33.1164 6.875C32.5323 6.29167 31.8231 6 30.9887 6C30.1544 6 29.4451 6.29167 28.8611 6.875C28.277 7.45833 27.985 8.16667 27.985 9C27.985 9.83333 28.277 10.5417 28.8611 11.125C29.4451 11.7083 30.1544 12 30.9887 12Z" fill="#333333"/>
</svg>
